<?xml version="1.0" encoding="utf-8"?>
<!-- Generator: Adobe Illustrator 24.0.1, SVG Export Plug-In . SVG Version: 6.00 Build 0)  -->
<svg version="1.1" id="Layer_1" xmlns="http://www.w3.org/2000/svg" xmlns:xlink="http://www.w3.org/1999/xlink" x="0px" y="0px"
	 viewBox="0 0 444.2 187.1" style="enable-background:new 0 0 444.2 187.1;" xml:space="preserve">
<style type="text/css">
	.st0{fill:#93C5FD;}
	.st1{fill:#231F20;}
	.st2{fill:#1D4ED8;}
	.st3{fill:#DBEAFE;}
	.st4{fill:#4B5563;}
</style>
<g>
	<g>
		<path class="st0" d="M226.1,129.1l-8.2,16.8c-0.1,0.3-0.3,0.5-0.6,0.6c-0.3,0.2-0.5,0.2-0.8,0.2c-0.3,0-0.6-0.1-0.8-0.2
			c-0.3-0.2-0.5-0.4-0.6-0.6l-8.2-16.8h3.5l6.1,12.6l6.1-12.6H226.1z"/>
		<path class="st0" d="M233.2,130.7h-3.2v-2.9h3.2V130.7z M233.2,146.5h-3.2v-13.1h3.2V146.5z"/>
		<path class="st0" d="M251.5,142.1c0,0.5-0.1,1-0.2,1.5c-0.1,0.4-0.3,0.8-0.5,1.1c-0.2,0.3-0.5,0.6-0.8,0.8
			c-0.3,0.2-0.6,0.4-0.9,0.6c-0.3,0.1-0.7,0.3-1,0.3c-0.3,0.1-0.7,0.1-1,0.1h-8.6v-3.2h8.5c0.4,0,0.8-0.1,1-0.3
			c0.2-0.2,0.3-0.5,0.3-0.9c0-0.8-0.5-1.3-1.3-1.3h-4.9c-0.7,0-1.3-0.1-1.8-0.4c-0.5-0.2-0.9-0.5-1.2-0.9c-0.3-0.4-0.5-0.8-0.7-1.2
			c-0.1-0.4-0.2-0.8-0.2-1.2c0-0.7,0.1-1.3,0.4-1.8c0.3-0.5,0.6-0.9,0.9-1.2c0.4-0.3,0.8-0.5,1.2-0.7c0.4-0.1,0.9-0.2,1.3-0.2h7.8
			v3.2h-7.7c-0.2,0-0.3,0-0.4,0.1c-0.1,0-0.2,0.1-0.2,0.1c0,0.1-0.1,0.1-0.1,0.2c0,0.1,0,0.1,0,0.2c0,0.1,0,0.2,0.1,0.3
			c0,0.1,0.1,0.1,0.2,0.2c0.1,0,0.1,0.1,0.2,0.1c0.1,0,0.2,0,0.2,0h4.9c0.8,0,1.5,0.1,2.1,0.4c0.6,0.3,1,0.7,1.4,1.1
			c0.3,0.4,0.6,0.9,0.8,1.4C251.4,141.1,251.5,141.6,251.5,142.1z"/>
		<path class="st0" d="M259.4,130.7h-3.2v-2.9h3.2V130.7z M259.4,146.5h-3.2v-13.1h3.2V146.5z"/>
		<path class="st0" d="M279.2,142.1c0,0.5-0.1,1-0.2,1.5c-0.1,0.4-0.3,0.8-0.5,1.1c-0.2,0.3-0.5,0.6-0.8,0.8
			c-0.3,0.2-0.6,0.4-0.9,0.6c-0.3,0.1-0.7,0.3-1,0.3c-0.3,0.1-0.7,0.1-1,0.1H269c-0.4,0-0.9-0.1-1.4-0.2c-0.5-0.2-1-0.4-1.4-0.8
			c-0.4-0.4-0.8-0.8-1.1-1.4c-0.3-0.6-0.4-1.3-0.4-2.1v-4.3c0-0.8,0.1-1.5,0.4-2.1c0.3-0.6,0.7-1,1.1-1.4c0.4-0.4,0.9-0.6,1.4-0.8
			c0.5-0.2,1-0.2,1.4-0.2h5.7c0.8,0,1.5,0.1,2.1,0.4c0.6,0.3,1,0.7,1.4,1.1c0.3,0.4,0.6,0.9,0.8,1.4c0.2,0.5,0.2,1,0.2,1.4V142.1z
			 M276,137.8c0-0.4-0.1-0.8-0.3-1c-0.2-0.2-0.5-0.3-0.9-0.3h-5.7c-0.4,0-0.7,0.1-1,0.3c-0.2,0.2-0.3,0.5-0.3,0.9v4.3
			c0,0.4,0.1,0.7,0.3,0.9c0.2,0.2,0.5,0.3,1,0.3h5.7c0.4,0,0.7-0.1,1-0.3c0.2-0.2,0.3-0.5,0.3-0.9V137.8z"/>
		<path class="st0" d="M298.9,146.5h-3.2v-7.3c0-0.4-0.1-0.8-0.2-1.1c-0.1-0.3-0.3-0.6-0.6-0.8c-0.2-0.2-0.5-0.4-0.9-0.5
			c-0.3-0.1-0.7-0.2-1.1-0.2h-5.5v10h-3.2v-11.6c0-0.2,0-0.4,0.1-0.6c0.1-0.2,0.2-0.4,0.3-0.5c0.1-0.1,0.3-0.3,0.5-0.3
			c0.2-0.1,0.4-0.1,0.6-0.1h7.1c0.4,0,0.8,0,1.3,0.1c0.4,0.1,0.9,0.2,1.3,0.4c0.4,0.2,0.8,0.4,1.2,0.8c0.4,0.3,0.7,0.7,1,1.1
			c0.3,0.4,0.5,0.9,0.7,1.5c0.2,0.6,0.3,1.2,0.3,1.9V146.5z"/>
		<path class="st0" d="M324.8,146.5h-3.2v-10.4L316,146c-0.1,0.3-0.3,0.4-0.6,0.6c-0.2,0.1-0.5,0.2-0.8,0.2c-0.3,0-0.5-0.1-0.8-0.2
			c-0.2-0.1-0.4-0.3-0.6-0.6l-5.6-9.9v10.4h-3.2v-16.1c0-0.4,0.1-0.7,0.3-1c0.2-0.3,0.5-0.5,0.8-0.6c0.2,0,0.3-0.1,0.5,0
			c0.2,0,0.3,0,0.5,0.1c0.2,0.1,0.3,0.1,0.4,0.3c0.1,0.1,0.2,0.2,0.3,0.4l7.2,12.5l7.2-12.5c0.2-0.3,0.4-0.5,0.8-0.7
			c0.3-0.1,0.7-0.1,1-0.1c0.3,0.1,0.6,0.3,0.8,0.6c0.2,0.3,0.3,0.6,0.3,1V146.5z"/>
		<path class="st0" d="M344.1,142.1c0,0.4-0.1,0.9-0.2,1.4c-0.2,0.5-0.4,1-0.7,1.4c-0.3,0.4-0.8,0.8-1.3,1.1c-0.6,0.3-1.2,0.4-2,0.4
			h-5.7c-0.4,0-0.9-0.1-1.4-0.2c-0.5-0.2-1-0.4-1.4-0.7c-0.4-0.3-0.8-0.8-1.1-1.3c-0.3-0.6-0.4-1.2-0.4-2c0-0.4,0.1-0.9,0.2-1.4
			c0.2-0.5,0.4-1,0.7-1.4c0.3-0.4,0.8-0.8,1.3-1.1c0.6-0.3,1.2-0.4,2-0.4h5.7v3h-5.7c-0.4,0-0.8,0.1-1,0.4c-0.2,0.3-0.4,0.6-0.4,1
			c0,0.4,0.1,0.7,0.4,1c0.3,0.2,0.6,0.3,1,0.3h5.7c0.4,0,0.8-0.1,1-0.4c0.2-0.3,0.4-0.6,0.4-1v-4.4c0-0.4-0.1-0.7-0.4-1
			c-0.3-0.2-0.6-0.4-1-0.4h-6.9v-3h6.9c0.4,0,0.9,0.1,1.4,0.2c0.5,0.2,1,0.4,1.4,0.7c0.4,0.3,0.8,0.8,1.1,1.3c0.3,0.6,0.4,1.2,0.4,2
			V142.1z"/>
		<path class="st0" d="M361.3,136.5h-5.5v10h-3.2v-10h-4.1v-3.2h4.1v-4.3h3.2v4.3h5.5V136.5z"/>
		<path class="st0" d="M377.3,136.5h-7.1c-0.4,0-0.8,0.1-1,0.3c-0.2,0.2-0.3,0.5-0.3,0.9v8.7h-3.2v-8.7c0-0.5,0.1-1,0.2-1.5
			c0.1-0.4,0.3-0.8,0.6-1.1c0.2-0.3,0.5-0.6,0.8-0.8c0.3-0.2,0.6-0.4,0.9-0.6c0.3-0.1,0.7-0.3,1-0.3c0.3-0.1,0.7-0.1,0.9-0.1h7.1
			V136.5z"/>
		<path class="st0" d="M385.1,130.7H382v-2.9h3.2V130.7z M385.1,146.5H382v-13.1h3.2V146.5z"/>
		<path class="st0" d="M405.6,133.4l-5.7,6.2l6.4,6.9H402l-4.2-4.6l-4.2,4.6h-4.4l6.4-7l-5.6-6.2h4.3l3.5,3.8l3.5-3.8H405.6z"/>
	</g>
	<g>
		<g>
			<g>
				<path class="st1" d="M428.1,55.3c1.2-1,2.7-2.3,3.9-3.9c0.3-0.4,0.5-0.3,0.8,0c2.9,2.9,5.9,5.8,8.8,8.7c1.3,1.3,1.2,3.3,0,4.5
					c-1.2,1.3-3.3,1.5-4.5,0.2C434.1,61.8,431.1,58.5,428.1,55.3z"/>
			</g>
			<g>
				<path class="st1" d="M411.3,11.4c-12.6-0.1-23.1,10.2-23.2,22.7c0,0.1,0,0.3,0,0.4h6.4c0-9.2,7.5-16.7,16.7-16.7
					c9.3,0,16.7,7.5,16.6,16.7c0,6.7-4,12.4-9.7,15v6.9c9.2-2.9,16-11.6,16.1-21.8C434.4,21.9,424.2,11.5,411.3,11.4z"/>
			</g>
		</g>
	</g>
	<g>
		<path class="st2" d="M162.7,103.2H153v-34l-17,32.3c-0.4,0.8-1,1.4-1.8,1.9s-1.6,0.6-2.4,0.6c-0.8,0-1.6-0.2-2.3-0.6
			c-0.7-0.4-1.3-1-1.7-1.9l-17.1-32.3v34H101V50.6c0-1.2,0.3-2.3,1-3.2c0.7-0.9,1.5-1.6,2.6-1.9c0.5-0.1,1-0.2,1.6-0.1
			c0.5,0,1,0.2,1.5,0.4c0.5,0.2,0.9,0.5,1.3,0.8c0.4,0.4,0.7,0.8,1,1.3l21.9,40.9l21.9-40.9c0.6-1,1.3-1.7,2.3-2.1
			c1-0.4,2-0.5,3.1-0.2c1,0.3,1.9,0.9,2.5,1.9c0.7,0.9,1,2,1,3.2V103.2z"/>
		<path class="st2" d="M243.9,46.1l-25.1,55c-0.4,0.8-1,1.5-1.8,2s-1.6,0.8-2.6,0.8c-0.9,0-1.8-0.3-2.5-0.8s-1.4-1.2-1.8-2l-25.1-55
			h10.8l18.6,41.1l18.7-41.1H243.9z"/>
		<path class="st2" d="M323.6,86.4c0,2-0.2,3.9-0.7,5.5c-0.5,1.6-1.1,3.1-1.9,4.3c-0.8,1.2-1.7,2.3-2.8,3.2
			c-1.1,0.9-2.2,1.6-3.3,2.1c-1.1,0.6-2.3,1-3.5,1.2c-1.2,0.3-2.3,0.4-3.3,0.4h-37.1V92.8h37.1c1.8,0,3.3-0.6,4.3-1.8
			c1-1.2,1.5-2.7,1.5-4.7c0-1-0.1-1.8-0.4-2.6c-0.3-0.8-0.7-1.5-1.2-2.1c-0.5-0.6-1.1-1-1.8-1.4c-0.7-0.3-1.5-0.5-2.4-0.5h-22.1
			c-1.6,0-3.2-0.3-5-0.9s-3.5-1.6-5-2.9c-1.5-1.3-2.8-3.1-3.8-5.2c-1-2.1-1.5-4.8-1.5-7.9c0-3.1,0.5-5.7,1.5-7.9
			c1-2.1,2.3-3.9,3.8-5.2c1.5-1.3,3.2-2.3,5-2.9c1.8-0.6,3.5-0.9,5-0.9h32.7v10.3h-32.7c-1.8,0-3.2,0.6-4.3,1.8
			c-1,1.2-1.5,2.8-1.5,4.7c0,2,0.5,3.6,1.5,4.7c1,1.2,2.4,1.7,4.3,1.7h22.1h0.1c1,0,2.1,0.2,3.3,0.5s2.3,0.7,3.5,1.3
			c1.1,0.6,2.2,1.3,3.3,2.2s2,2,2.8,3.2c0.8,1.2,1.4,2.7,1.9,4.3C323.4,82.5,323.6,84.4,323.6,86.4z"/>
		<path class="st2" d="M403.9,103.6h-34.7c-1.3,0-2.8-0.3-4.4-0.8c-1.6-0.5-3-1.3-4.4-2.5c-1.3-1.2-2.5-2.7-3.4-4.5
			c-0.9-1.8-1.3-4.1-1.3-6.8V51.8c0-0.7,0.1-1.4,0.4-2c0.2-0.6,0.6-1.2,1-1.7c0.4-0.5,0.9-0.8,1.5-1.1c0.6-0.3,1.2-0.4,1.9-0.4h43.3
			v10.3h-38.5v32.2c0,1.4,0.3,2.4,1,3.1c0.7,0.7,1.6,1.1,2.9,1.1h34.6V103.6z M399.5,80.3h-30.3V69.9h30.3V80.3z"/>
	</g>
	<g>
		<path class="st3" d="M73.7,177.8c-1.1,0.2-2.2,0.6-3.4,0.8c-7.8,1.6-15.3,0.9-21.6-4.2c-13-10.6-15.1-33.4-15.6-49.1
			c0-0.7,0.7-1.1,1.3-0.8c0.4,0.2,0.8,0.4,1.1,0.6c14.7,11,31,18.9,48.7,23.7c12.1,3.3,24.2,5.3,36.5,4.8c1.4-0.1,2.6-1.3,2.5-2.7v0
			c-0.1-2.4-2.1-4.3-4.6-4.3c0,0,0,0,0,0c-31.1-0.2-58.3-11.1-82.8-29.9c-1.7-1.3-1.9-2.8-1.6-4.7c4.3-28,15.6-52.8,34.9-73.6
			c8.3-8.9,17.9-16.2,30-19.5c18.2-5,30.2,6.7,34.1,18.8c0.2,0.7-0.5,1.3-1.2,1l0,0c-2.3-1-4.5-1-5.5,1.6c-1,2.6,0.7,4,3,4.9
			c2.5,1,4.9,2.1,7.3,3.1c3.5,1.4,4.9,0.8,6.5-2.7c1-2.2,1.9-4.4,2.9-6.7c0.9-2.1,1.8-4.2-0.6-5.8c-1.9-1.3-3.4-0.6-4.7,0.9
			c-0.4,0.5-1.2,0.4-1.4-0.2c-0.2-0.3-0.3-0.6-0.4-0.9C130.4,15,109.4,6.7,91.1,14.1c-6.1,2.5-11.6,5.9-16.7,10
			C52.9,41.7,39.9,64.7,31.8,90.8c-1.6,5.3-2.7,10.7-3.9,16.7c-0.1,0.7-1,0.9-1.5,0.4C16.9,97.8,9.5,87.3,8.6,73.5
			c-0.8-12.7,8.7-23.4,20-26.7c0.7-0.2,1.3,0.5,1.1,1.1c-0.1,0.2-0.1,0.3-0.2,0.5c-0.7,2.1-0.5,4,1.7,4.9c2.5,1,3.9-0.4,4.8-2.6
			c1.2-2.9,2.5-5.7,3.7-8.6c1-2.3,0.3-4.1-2-5.1c-2.6-1.2-5.3-2.3-7.9-3.4c-2-0.9-4-1.6-5.5,0.6c-1.3,2-0.6,3.5,0.9,4.8
			c0.5,0.4,0.4,1.2-0.2,1.4c-0.1,0.1-0.3,0.1-0.4,0.2C3.8,49.9-3.5,68.1,5.2,89c4.3,10.3,10.9,18.9,19,26.5c1.6,1.5,2.5,3.7,2.3,6
			c-0.5,7.1,0.4,22.2,1.8,29.2c2,10.2,5.6,19.7,13.5,27c9.9,9.1,21.4,10.3,33.8,6.8c2-0.6,3.2-2,2.7-4.1
			C77.7,177.9,75.9,177.3,73.7,177.8z"/>
		<path class="st3" d="M131.9,146.3c2.2,0.3,3.5,1.5,3.4,3.4c0,2.1-1.3,3.5-3.5,3.4c-2.2-0.1-3.3-1.5-3.2-3.7
			C128.8,147.4,130.2,146.6,131.9,146.3z"/>
		<path class="st3" d="M87.8,174.4c1.9,1.1,2.6,2.7,1.8,4.5c-0.8,1.9-2.6,2.8-4.5,1.8c-1.9-0.9-2.5-2.7-1.5-4.6
			C84.4,174.3,86.1,174,87.8,174.4z"/>
	</g>
	<g>
		<path class="st0" d="M157.5,116.6c2.2,0.3,3.5,1.5,3.4,3.4c0,2.1-1.3,3.5-3.5,3.4c-2.2-0.1-3.3-1.5-3.2-3.7
			C154.4,117.8,155.8,116.9,157.5,116.6z"/>
		<path class="st0" d="M130.2,161.5c1.9,1.1,2.6,2.7,1.8,4.5c-0.8,1.9-2.6,2.8-4.5,1.8c-1.9-0.9-2.5-2.7-1.5-4.6
			C126.9,161.4,128.6,161.2,130.2,161.5z"/>
		<path class="st0" d="M117.3,169.1c-0.9,0.7-1.8,1.4-2.8,2.1c-6.5,4.5-13.7,6.9-21.5,4.7c-16.2-4.6-27-24.7-33.7-38.9
			c-0.3-0.6,0.2-1.3,0.8-1.2c0.5,0,0.9,0.1,1.2,0.2c17.9,4.3,35.9,5.1,54.1,2.5c12.4-1.7,24.4-4.7,35.4-10.1
			c1.3-0.6,1.8-2.2,1.2-3.5l0,0c-1.1-2.2-3.7-3.1-5.9-2.1c0,0,0,0,0,0c-28.6,12.1-58,12.9-87.8,5.3c-2.1-0.5-2.8-1.8-3.3-3.7
			c-7.1-27.4-6.6-54.6,2.9-81.4c4.1-11.5,10-22,19.8-29.8c14.8-11.8,30.4-5.8,38.7,3.8c0.5,0.6,0.1,1.4-0.7,1.4l0,0
			c-2.5,0-4.5,0.9-4.4,3.6c0.1,2.8,2.2,3.4,4.7,3.3c2.6-0.1,5.3,0,7.9,0c3.7-0.1,4.8-1.2,4.9-5c0-2.4,0-4.8,0-7.2
			c0-2.3,0-4.6-2.9-5.1c-2.3-0.4-3.3,0.8-4,2.7c-0.2,0.6-0.9,0.8-1.4,0.4c-0.3-0.2-0.5-0.5-0.8-0.7c-14.9-13-37.4-12.3-51.3,1.7
			c-4.6,4.7-8.3,10-11.4,15.8c-12.8,24.6-15.7,50.9-12.8,78.1c0.6,5.5,1.7,10.9,3,16.9c0.1,0.7-0.6,1.3-1.2,1
			c-12.7-5.6-23.6-12.3-29.9-24.6C10.4,87.7,15,74.1,24,66.7c0.5-0.4,1.4-0.1,1.4,0.6c0,0.2,0,0.3,0,0.5c0.2,2.2,1.1,3.9,3.5,3.8
			c2.7-0.1,3.4-1.9,3.4-4.2c0-3.1,0-6.2,0-9.3c0-2.5-1.4-3.8-3.9-3.9c-2.9,0-5.8,0-8.6,0c-2.2,0-4.3,0.2-4.8,2.8
			c-0.4,2.3,0.8,3.4,2.7,4.1c0.6,0.2,0.8,0.9,0.4,1.4c-0.1,0.1-0.2,0.2-0.3,0.3C2.6,79.3,3,98.9,19.2,114.7
			c8,7.8,17.5,13.1,27.9,16.8c2.1,0.8,3.7,2.4,4.5,4.6c2.3,6.7,9.2,20.2,13.2,26.1c5.9,8.6,13,15.9,23.1,19.4
			c12.7,4.4,23.7,1,33.7-7.1c1.6-1.3,2.2-3.1,0.8-4.9C121.1,167.7,119.2,167.8,117.3,169.1z"/>
	</g>
	<g>
		<g>
			<g>
				<path class="st4" d="M155.6,174.4v-8.9h1.3l3.8,6.5H160l3.8-6.5h1.3l0,8.9h-1.6V168h0.3l-3.2,5.4H160l-3.2-5.4h0.4v6.4H155.6z"
					/>
				<path class="st4" d="M171.2,174.6c-1.2,0-2.1-0.3-2.8-1c-0.7-0.7-1-1.7-1-3v-5h1.6v5c0,0.9,0.2,1.6,0.6,2
					c0.4,0.4,0.9,0.6,1.6,0.6c0.7,0,1.3-0.2,1.6-0.6c0.4-0.4,0.6-1.1,0.6-2v-5h1.6v5c0,1.3-0.3,2.3-1,3
					C173.3,174.2,172.4,174.6,171.2,174.6z"/>
				<path class="st4" d="M177.3,174.4v-8.9h1.6v7.5h4.6v1.4H177.3z"/>
				<path class="st4" d="M186.5,174.4v-7.5h-2.9v-1.4h7.4v1.4h-2.9v7.5H186.5z"/>
				<path class="st4" d="M192.3,174.4v-8.9h1.6v8.9H192.3z"/>
				<path class="st4" d="M195.9,170.6v-1.3h3.4v1.3H195.9z"/>
				<path class="st4" d="M201.3,174.4v-8.9h1.3l3.8,6.5h-0.7l3.8-6.5h1.3l0,8.9h-1.6V168h0.3l-3.2,5.4h-0.7l-3.2-5.4h0.4v6.4H201.3z
					"/>
				<path class="st4" d="M217.3,174.6c-0.7,0-1.3-0.1-1.9-0.3s-1.1-0.6-1.5-1c-0.4-0.4-0.8-0.9-1-1.5c-0.2-0.6-0.3-1.2-0.3-1.8
					c0-0.7,0.1-1.3,0.3-1.8c0.2-0.6,0.6-1,1-1.4c0.4-0.4,0.9-0.7,1.5-1s1.2-0.3,1.9-0.3c0.7,0,1.3,0.1,1.9,0.3
					c0.6,0.2,1.1,0.5,1.5,1c0.4,0.4,0.7,0.9,1,1.5c0.2,0.6,0.3,1.2,0.3,1.8c0,0.7-0.1,1.3-0.3,1.8c-0.2,0.6-0.6,1-1,1.5
					c-0.4,0.4-0.9,0.7-1.5,1C218.6,174.5,217.9,174.6,217.3,174.6z M217.3,173.1c0.4,0,0.8-0.1,1.2-0.2c0.4-0.2,0.7-0.4,1-0.6
					c0.3-0.3,0.5-0.6,0.6-1s0.2-0.8,0.2-1.3c0-0.5-0.1-0.9-0.2-1.3c-0.1-0.4-0.4-0.7-0.6-1s-0.6-0.5-1-0.6s-0.8-0.2-1.2-0.2
					c-0.4,0-0.9,0.1-1.2,0.2s-0.7,0.4-1,0.7c-0.3,0.3-0.5,0.6-0.6,1c-0.2,0.4-0.2,0.8-0.2,1.3c0,0.4,0.1,0.9,0.2,1.2s0.4,0.7,0.6,1
					c0.3,0.3,0.6,0.5,1,0.7C216.4,173,216.8,173.1,217.3,173.1z"/>
				<path class="st4" d="M223.7,174.4v-8.9h3.8c0.9,0,1.8,0.2,2.5,0.6c0.7,0.4,1.3,0.9,1.7,1.6c0.4,0.7,0.6,1.4,0.6,2.3
					c0,0.9-0.2,1.7-0.6,2.3c-0.4,0.7-1,1.2-1.7,1.6s-1.5,0.6-2.5,0.6H223.7z M225.3,173h2.1c0.7,0,1.2-0.1,1.7-0.4
					c0.5-0.3,0.9-0.6,1.1-1.1c0.3-0.5,0.4-1,0.4-1.6c0-0.6-0.1-1.2-0.4-1.6c-0.3-0.4-0.6-0.8-1.1-1.1c-0.5-0.3-1-0.4-1.7-0.4h-2.1
					V173z"/>
				<path class="st4" d="M232.7,174.4l3.9-8.9h1.6l3.9,8.9h-1.7l-3.4-8h0.6l-3.4,8H232.7z M234.5,172.4l0.4-1.3h4.7l0.4,1.3H234.5z"
					/>
				<path class="st4" d="M243.3,174.4v-8.9h1.6v7.5h4.6v1.4H243.3z"/>
				<path class="st4" d="M256.8,174.4l-3.8-8.9h1.8l3.4,8h-1l3.5-8h1.6l-3.8,8.9H256.8z"/>
				<path class="st4" d="M263.3,174.4v-8.9h1.6v8.9H263.3z"/>
				<path class="st4" d="M267.2,174.4v-8.9h3.8c0.9,0,1.8,0.2,2.5,0.6c0.7,0.4,1.3,0.9,1.7,1.6c0.4,0.7,0.6,1.4,0.6,2.3
					c0,0.9-0.2,1.7-0.6,2.3c-0.4,0.7-1,1.2-1.7,1.6s-1.5,0.6-2.5,0.6H267.2z M268.9,173h2.1c0.7,0,1.2-0.1,1.7-0.4
					c0.5-0.3,0.9-0.6,1.1-1.1c0.3-0.5,0.4-1,0.4-1.6c0-0.6-0.1-1.2-0.4-1.6c-0.3-0.4-0.6-0.8-1.1-1.1c-0.5-0.3-1-0.4-1.7-0.4h-2.1
					V173z"/>
				<path class="st4" d="M279.1,173h4.9v1.4h-6.5v-8.9h6.4v1.4h-4.7V173z M279,169.2h4.3v1.4H279V169.2z"/>
				<path class="st4" d="M290,174.6c-0.7,0-1.3-0.1-1.9-0.3s-1.1-0.6-1.5-1c-0.4-0.4-0.8-0.9-1-1.5s-0.3-1.2-0.3-1.8
					c0-0.7,0.1-1.3,0.3-1.8c0.2-0.6,0.6-1,1-1.4c0.4-0.4,0.9-0.7,1.5-1s1.2-0.3,1.9-0.3c0.7,0,1.3,0.1,1.9,0.3
					c0.6,0.2,1.1,0.5,1.5,1c0.4,0.4,0.7,0.9,1,1.5s0.3,1.2,0.3,1.8c0,0.7-0.1,1.3-0.3,1.8s-0.6,1-1,1.5c-0.4,0.4-0.9,0.7-1.5,1
					C291.3,174.5,290.7,174.6,290,174.6z M290,173.1c0.4,0,0.8-0.1,1.2-0.2c0.4-0.2,0.7-0.4,1-0.6s0.5-0.6,0.6-1
					c0.2-0.4,0.2-0.8,0.2-1.3c0-0.5-0.1-0.9-0.2-1.3s-0.4-0.7-0.6-1c-0.3-0.3-0.6-0.5-1-0.6s-0.8-0.2-1.2-0.2s-0.8,0.1-1.2,0.2
					c-0.4,0.2-0.7,0.4-1,0.7c-0.3,0.3-0.5,0.6-0.6,1c-0.2,0.4-0.2,0.8-0.2,1.3c0,0.4,0.1,0.9,0.2,1.2s0.4,0.7,0.6,1
					c0.3,0.3,0.6,0.5,1,0.7C289.1,173,289.5,173.1,290,173.1z"/>
				<path class="st4" d="M302.5,174.6c-0.7,0-1.3-0.1-2-0.3c-0.6-0.2-1.1-0.5-1.5-0.8l0.6-1.3c0.3,0.3,0.8,0.5,1.3,0.7
					c0.5,0.2,1,0.3,1.6,0.3c0.5,0,0.8-0.1,1.1-0.2c0.3-0.1,0.5-0.2,0.6-0.4s0.2-0.4,0.2-0.6c0-0.3-0.1-0.5-0.3-0.7
					c-0.2-0.2-0.4-0.3-0.7-0.4c-0.3-0.1-0.6-0.2-1-0.3c-0.4-0.1-0.7-0.2-1.1-0.3c-0.4-0.1-0.7-0.3-1-0.5c-0.3-0.2-0.6-0.4-0.7-0.7
					c-0.2-0.3-0.3-0.7-0.3-1.2c0-0.5,0.1-0.9,0.4-1.3c0.3-0.4,0.6-0.7,1.2-1c0.5-0.2,1.2-0.4,2-0.4c0.5,0,1,0.1,1.6,0.2
					c0.5,0.1,1,0.3,1.3,0.6l-0.5,1.3c-0.4-0.2-0.8-0.4-1.2-0.5c-0.4-0.1-0.8-0.2-1.2-0.2c-0.4,0-0.8,0.1-1.1,0.2
					c-0.3,0.1-0.5,0.3-0.6,0.4c-0.1,0.2-0.2,0.4-0.2,0.6c0,0.3,0.1,0.5,0.3,0.7c0.2,0.2,0.4,0.3,0.7,0.4c0.3,0.1,0.6,0.2,1,0.3
					c0.4,0.1,0.7,0.2,1.1,0.3c0.4,0.1,0.7,0.3,1,0.4c0.3,0.2,0.6,0.4,0.7,0.7c0.2,0.3,0.3,0.7,0.3,1.1c0,0.5-0.1,0.9-0.4,1.3
					c-0.3,0.4-0.6,0.7-1.2,1C304,174.4,303.3,174.6,302.5,174.6z"/>
				<path class="st4" d="M309.3,173h4.9v1.4h-6.5v-8.9h6.4v1.4h-4.7V173z M309.1,169.2h4.3v1.4h-4.3V169.2z"/>
				<path class="st4" d="M314.8,174.4l3.9-8.9h1.6l3.9,8.9h-1.7l-3.4-8h0.6l-3.4,8H314.8z M316.6,172.4l0.4-1.3h4.7l0.4,1.3H316.6z"
					/>
				<path class="st4" d="M325.3,174.4v-8.9h3.6c0.8,0,1.4,0.1,2,0.4c0.6,0.2,1,0.6,1.3,1.1c0.3,0.5,0.4,1,0.4,1.7
					c0,0.7-0.2,1.2-0.4,1.7c-0.3,0.5-0.7,0.8-1.3,1.1s-1.2,0.4-2,0.4h-2.7l0.7-0.7v3.3H325.3z M327,171.3l-0.7-0.8h2.6
					c0.7,0,1.3-0.2,1.6-0.5c0.4-0.3,0.5-0.7,0.5-1.3s-0.2-1-0.5-1.3c-0.4-0.3-0.9-0.5-1.6-0.5h-2.6l0.7-0.8V171.3z M331,174.4
					l-2.2-3.2h1.7l2.2,3.2H331z"/>
				<path class="st4" d="M338.5,174.6c-0.7,0-1.3-0.1-1.9-0.3c-0.6-0.2-1.1-0.5-1.5-1c-0.4-0.4-0.7-0.9-1-1.4
					c-0.2-0.5-0.3-1.2-0.3-1.8c0-0.7,0.1-1.3,0.3-1.8c0.2-0.6,0.6-1,1-1.4c0.4-0.4,0.9-0.7,1.5-1c0.6-0.2,1.2-0.3,1.9-0.3
					c0.7,0,1.4,0.1,2,0.4c0.6,0.3,1.1,0.6,1.5,1.1l-1,1c-0.3-0.3-0.7-0.6-1.1-0.8s-0.8-0.3-1.3-0.3c-0.5,0-0.9,0.1-1.3,0.2
					c-0.4,0.2-0.7,0.4-1,0.6s-0.5,0.6-0.7,1s-0.2,0.8-0.2,1.3c0,0.5,0.1,0.9,0.2,1.3s0.4,0.7,0.7,1s0.6,0.5,1,0.6
					c0.4,0.2,0.8,0.2,1.3,0.2c0.4,0,0.9-0.1,1.3-0.3s0.7-0.4,1.1-0.8l1,1c-0.4,0.5-0.9,0.9-1.5,1.1S339.2,174.6,338.5,174.6z"/>
				<path class="st4" d="M345.1,174.4h-1.6v-8.9h1.6V174.4z M349.8,170.6H345v-1.4h4.8V170.6z M349.6,165.6h1.6v8.9h-1.6V165.6z"/>
				<path class="st4" d="M358.6,173h4.9v1.4H357v-8.9h6.4v1.4h-4.7V173z M358.5,169.2h4.3v1.4h-4.3V169.2z"/>
				<path class="st4" d="M365.4,174.4v-8.9h1.3l5.5,6.9h-0.7v-6.9h1.6v8.9h-1.3l-5.5-6.9h0.7v6.9H365.4z"/>
				<path class="st4" d="M379.6,174.6c-0.7,0-1.3-0.1-1.9-0.3c-0.6-0.2-1.1-0.5-1.5-1c-0.4-0.4-0.8-0.9-1-1.4
					c-0.2-0.5-0.3-1.2-0.3-1.8c0-0.7,0.1-1.3,0.3-1.8c0.2-0.6,0.6-1,1-1.4c0.4-0.4,0.9-0.7,1.5-1c0.6-0.2,1.2-0.3,1.9-0.3
					c0.7,0,1.4,0.1,2,0.4c0.6,0.2,1.1,0.6,1.5,1.1l-1,1c-0.3-0.3-0.7-0.6-1.1-0.8s-0.8-0.2-1.3-0.2c-0.5,0-0.9,0.1-1.3,0.2
					s-0.7,0.4-1,0.6c-0.3,0.3-0.5,0.6-0.7,1s-0.2,0.8-0.2,1.3c0,0.4,0.1,0.9,0.2,1.3c0.2,0.4,0.4,0.7,0.7,1c0.3,0.3,0.6,0.5,1,0.6
					c0.4,0.2,0.8,0.2,1.3,0.2c0.4,0,0.8-0.1,1.3-0.2s0.8-0.4,1.2-0.7l0.9,1.2c-0.4,0.4-1,0.7-1.6,0.8
					C380.8,174.5,380.2,174.6,379.6,174.6z M381.4,173.2v-3.3h1.5v3.5L381.4,173.2z"/>
				<path class="st4" d="M385.1,174.4v-8.9h1.6v8.9H385.1z"/>
				<path class="st4" d="M389.1,174.4v-8.9h1.3l5.5,6.9h-0.7v-6.9h1.6v8.9h-1.3l-5.5-6.9h0.7v6.9H389.1z"/>
				<path class="st4" d="M400.8,173h4.9v1.4h-6.5v-8.9h6.4v1.4h-4.7V173z M400.7,169.2h4.3v1.4h-4.3V169.2z"/>
			</g>
		</g>
	</g>
</g>
</svg>
